<svg class="quote-right" xmlns="http://www.w3.org/2000/svg" viewBox="0 0 64 64" fill="rgba(255,255,255,0.1)" width="18em">
	<title>quote-right-01</title>
	<path d="M9.79,42.33c0,5.73-4.34,10.22-8.78,10.22l0.57,2.12C11.19,56.82,30,48.64,30,29.28,30,17.87,25.51,9.71,15.63,9,6,8.4,0,14.36,0,21.58,0,31,9.79,33.9,9.79,42.33Z"></path>
	<path d="M35,52.54l0.57,2.12C45.23,56.82,64,48.64,64,29.28,64,17.87,59.55,9.71,49.67,9,40,8.4,34,14.36,34,21.58,34,31,43.82,33.9,43.82,42.33,43.82,48.06,39.48,52.54,35,52.54Z"></path>
</svg>
