<svg xmlns="http://www.w3.org/2000/svg" viewBox="0 0 64 64"><defs><style>.cls-1{isolation:isolate;}.cls-2{mix-blend-mode:multiply;}.cls-3{fill:rgba(63,90,121,1);}</style></defs><title>tag-r</title><g class="cls-1"><g id="Layer_1" data-name="Layer 1"><g class="cls-2"><path class="cls-3" d="M3.75,46.48H45.91A9.36,9.36,0,0,0,51.66,44l11.11-9.52a3.17,3.17,0,0,0,0-5L51.66,20a9.36,9.36,0,0,0-5.76-2.48H3.75A3.82,3.82,0,0,0,0,21.37V42.61A3.82,3.82,0,0,0,3.75,46.48ZM52,28a4,4,0,1,1-4,4A4,4,0,0,1,52,28Z"/></g></g></g></svg>