<svg xmlns="http://www.w3.org/2000/svg" viewBox="0 0 64 64" fill="rgba(63,90,121,1)"><defs></defs><title>twitter</title><path d="M64,30.33a16.09,16.09,0,0,1-7.2-.7c3.54-.35,6.06-2,7-4.18-1.26.81-5.37,1.63-7.54,0.81-0.11-.46-0.23-1-0.34-1.51-1.71-6.16-7.54-11.15-13.6-10.57,0.46-.23,1-0.35,1.49-0.58,0.69-.23,4.57-0.93,4-2.21s-5.37.93-6.17,1.16c1.14-.46,3.2-1.16,3.43-2.56a10.07,10.07,0,0,0-5,2.32,3.18,3.18,0,0,0,.91-1.86C36,13.6,33.14,19.76,30.86,25.92a23.4,23.4,0,0,0-4.8-3.83A127.13,127.13,0,0,0,9.6,14.88c-0.23,2.44,1.26,5.81,5.49,8a12.14,12.14,0,0,0-3.89.46c0.57,2.9,2.29,5.23,7.2,6.39a5.84,5.84,0,0,0-4.34,1.74c1,2,3.43,4.3,7.89,3.83-4.91,2.09-2.06,6,1.94,5.46A17.3,17.3,0,0,1,0,41.37c16.11,21.84,51.2,12.9,56.34-8.13C60.34,33.24,62.63,31.84,64,30.33Z"></path></svg>